<svg width="82" height="68" viewBox="0 0 82 68" fill="none" xmlns="http://www.w3.org/2000/svg">
<path d="M78.1938 3.31212C76.1781 1.26979 73.381 0 70.2998 0H11.0989C7.9733 0 5.14069 1.31419 3.125 3.4098L40.8015 30.5639L78.1938 3.31212Z" fill="#D1D3D6"/>
<path d="M39.2215 37.1135L0.399585 9.18691C0.142075 10.1193 0 11.0872 0 12.0994V56.4979C0 62.6071 4.99038 67.5975 11.0996 67.5975H70.3004C76.4096 67.5975 81.4 62.6071 81.4 56.4979V12.0994C81.4 11.0428 81.2402 10.0216 80.9649 9.05371L42.3827 37.1135C41.4326 37.7706 40.1717 37.7706 39.2215 37.1135Z" fill="#D1D3D6"/>
</svg>
