<svg width="100" height="82" viewBox="0 0 100 82" fill="none" xmlns="http://www.w3.org/2000/svg">
<g clip-path="url(#clip0_7840_55933)">
<path fill-rule="evenodd" clip-rule="evenodd" d="M99.5008 48.2014C99.5008 35.229 89.6008 24.3048 76.6284 21.2324C77.9939 24.9876 79.0181 29.0841 79.0181 33.5221C79.0181 50.591 67.0698 64.929 50.6836 70.391C55.8043 73.8048 62.2905 76.1945 69.1181 76.1945C72.5319 76.1945 76.287 75.8531 77.3112 75.8531L87.2112 81.3152C87.5526 81.3152 87.8939 81.6566 88.2353 81.6566C88.5767 81.6566 88.9181 81.6566 89.2595 81.3152C89.6008 80.9738 89.9422 80.9738 89.9422 80.6324C89.9422 80.291 90.2836 79.9497 90.2836 79.6083L89.2595 70.0497C96.7698 63.5635 99.5008 54.6876 99.5008 48.2014Z" fill="#929399"/>
<path fill-rule="evenodd" clip-rule="evenodd" d="M36.6862 0.75C16.5448 0.75 0.5 15.4293 0.5 33.5224C0.5 41.3741 3.91379 51.9569 12.7897 58.7845L11.7655 70.05C11.7655 70.3914 11.7655 71.4155 12.7897 72.0983C13.4724 72.781 14.8379 72.4397 15.1793 72.0983L26.7862 65.9534C28.1517 65.9534 32.5897 66.6362 36.3448 66.6362C56.1448 66.6362 72.531 51.9569 72.531 33.8638C72.8724 15.4293 56.4862 0.75 36.6862 0.75ZM22.3483 36.5948C20.3 36.5948 18.9345 35.2293 18.9345 33.181C18.9345 31.1328 20.3 29.7672 22.3483 29.7672C24.3966 29.7672 25.7621 31.1328 25.7621 33.181C25.7621 34.8879 24.3966 36.5948 22.3483 36.5948ZM36.6862 36.5948C34.6379 36.5948 33.2724 35.2293 33.2724 33.181C33.2724 31.1328 34.6379 29.7672 36.6862 29.7672C38.7345 29.7672 40.1 31.1328 40.1 33.181C40.1 34.8879 38.3931 36.5948 36.6862 36.5948ZM50.6828 36.5948C48.6345 36.5948 47.269 35.2293 47.269 33.181C47.269 31.1328 48.6345 29.7672 50.6828 29.7672C52.731 29.7672 54.0965 31.1328 54.0965 33.181C54.0965 34.8879 52.731 36.5948 50.6828 36.5948Z" fill="#929399"/>
</g>
<defs>
<clipPath id="clip0_7840_55933">
<rect width="99" height="80.5655" fill="white" transform="translate(0.5 0.75)"/>
</clipPath>
</defs>
</svg>
