<svg width="72" height="20" viewBox="0 0 72 20" fill="none" xmlns="http://www.w3.org/2000/svg">
<path fill-rule="evenodd" clip-rule="evenodd" d="M40.1717 5.61881L39.9879 5.78291V5.77963C39.6234 6.10671 39.3723 6.54114 39.2707 7.02021L38.9426 8.3166H40.8773L39.9419 12.634H38.0499L36.655 19.6722H30.7179L32.1505 12.6423H29.8233L28.4235 19.6805H22.4881L23.9272 12.6423H22.1697L23.1232 8.32813H24.8478L25.2384 6.71833C25.9998 3.92865 27.6031 1.90695 30.2057 0.910868C31.2127 0.526612 32.2817 0.330276 33.3596 0.331599H34.1834L32.9888 5.25456C32.6071 5.25319 32.2369 5.38492 31.9418 5.62707C31.886 5.67302 31.8253 5.72553 31.758 5.79117C31.3961 6.11925 31.1473 6.55355 31.0475 7.03175L30.7243 8.30839H33.076L33.4649 6.69858C34.2264 3.91218 35.8312 1.8872 38.4338 0.891124C39.4428 0.51068 40.5129 0.318244 41.5911 0.323341H42.4116L41.217 5.24631C40.8358 5.24532 40.4663 5.37702 40.1717 5.61881ZM51.2468 3.69232C45.9726 3.69232 41.6585 7.24999 40.8659 11.6725C40.0175 16.3887 43.3109 19.669 48.8312 19.6608C52.4266 19.6608 55.6184 18.1232 57.2593 15.9259L52.2018 13.9567C51.872 14.3948 50.6199 14.897 49.4597 14.897C48.1125 14.897 46.5289 13.9403 46.5289 12.6685H58.3818C58.5102 12.2625 58.6127 11.8487 58.6886 11.4296C59.4812 7.00548 56.5209 3.69232 51.2468 3.69232ZM50.5887 8.09838C51.9458 8.09838 53.3013 9.01241 53.0502 10.1791H47.292C47.5923 9.01241 49.2612 8.09838 50.5887 8.09838ZM68.7559 4.39627C69.7598 3.88311 70.8727 3.61967 72.0001 3.62829L70.7513 8.90078H70.1376C69.2605 8.90064 68.3929 9.08165 67.5891 9.43246C67.0525 9.67205 66.4667 10.1939 66.1221 10.5549C65.5953 11.1063 65.1506 12.0958 64.9438 13.1509L63.6737 19.6739H57.8302L60.93 3.74644H66.7768L66.104 6.90206C66.8622 5.82557 67.7384 4.95256 68.7559 4.39627ZM9.67532 10.8076L6.16197 10.7682C6.16188 10.5074 6.18495 10.2471 6.23089 9.99042C6.70349 7.44196 9.21749 5.49575 11.8201 5.49575C12.3749 5.48962 12.9261 5.58529 13.4463 5.778L16.9629 1.0897C15.6089 0.566986 14.1675 0.307446 12.7161 0.324998C6.35561 0.324998 1.11101 4.62931 0.15103 9.98221C-0.49716 13.5924 0.971524 16.7496 3.97125 18.412L9.67532 10.8076ZM12.5311 9.19452L18.1662 1.68044C20.8575 3.25415 22.2736 6.07501 21.9126 9.34714C21.8896 9.55718 21.8617 9.76887 21.8224 9.9822C20.8624 15.3154 15.6407 19.664 9.25731 19.664C7.87191 19.6796 6.49503 19.4456 5.19258 18.9732L8.73875 14.2438C9.19944 14.3895 9.67998 14.4626 10.1631 14.4605C12.7887 14.4605 15.2781 12.511 15.6933 9.98712C15.7411 9.73715 15.7669 9.48347 15.7704 9.22898L12.5311 9.19452Z" fill="black"/>
</svg>
